<?xml version="1.0" encoding="UTF-8" standalone="no"?>
<!-- Generator: Adobe Illustrator 16.1.0, SVG Export Plug-In . SVG Version: 6.00 Build 0)  -->

<svg
   xmlns:dc="http://purl.org/dc/elements/1.1/"
   xmlns:cc="http://creativecommons.org/ns#"
   xmlns:rdf="http://www.w3.org/1999/02/22-rdf-syntax-ns#"
   xmlns:svg="http://www.w3.org/2000/svg"
   xmlns="http://www.w3.org/2000/svg"
   xmlns:sodipodi="http://sodipodi.sourceforge.net/DTD/sodipodi-0.dtd"
   xmlns:inkscape="http://www.inkscape.org/namespaces/inkscape"
   version="1.1"
   id="Layer_1"
   x="0px"
   y="0px"
   width="232.80099"
   height="286.48801"
   viewBox="0 0 232.80099 286.48801"
   enable-background="new 0 0 960 800"
   xml:space="preserve"
   inkscape:version="0.48.3.1 r9886"
   sodipodi:docname="helm.svg"><metadata
   id="metadata57"><rdf:RDF><cc:Work
       rdf:about=""><dc:format>image/svg+xml</dc:format><dc:type
         rdf:resource="http://purl.org/dc/dcmitype/StillImage" /><dc:title></dc:title></cc:Work></rdf:RDF></metadata><defs
   id="defs55" /><sodipodi:namedview
   pagecolor="#ffffff"
   bordercolor="#666666"
   borderopacity="1"
   objecttolerance="10"
   gridtolerance="10"
   guidetolerance="10"
   inkscape:pageopacity="0"
   inkscape:pageshadow="2"
   inkscape:window-width="1920"
   inkscape:window-height="1034"
   id="namedview53"
   showgrid="false"
   fit-margin-top="0"
   fit-margin-left="0"
   fit-margin-right="0"
   fit-margin-bottom="0"
   inkscape:zoom="0.275"
   inkscape:cx="116.401"
   inkscape:cy="286.751"
   inkscape:window-x="0"
   inkscape:window-y="24"
   inkscape:window-maximized="1"
   inkscape:current-layer="Layer_1" />

<g
   id="g27"
   transform="translate(-363.599,-400.263)">
	<g
   id="g29">
		<path
   d="m 532,449.796 v 20.293 L 511.377,490.339 490.752,470 H 470.191 L 449.596,490.339 429,470.089 v -20.293 l -20,20.293 v 20.294 l 20,20.293 v 20.295 20.294 20.294 l 21,20.294 V 571.559 552 h 21 v 20 h 20 v -20 h 21 v 19.559 20.294 l 20,-20.294 v -20.294 -20.294 -20.295 l 21,-20.293 v -20.294 l -21,-20.293 z m -27,70.761 -9.793,10.146 -9.971,-10.146 -4.986,-5.073 -5.03,5.222 L 465.118,531 H 454.971 L 465.118,520.705 475.669,510.483 471,505.336 V 495.19 l 4.669,5.073 4.871,5.073 4.973,5.073 9.743,10.147 L 505,510.41 v 10.147 z"
   id="path31"
   inkscape:connector-curvature="0"
   style="fill:#f0493e" />
	</g>
	<g
   id="g33">
		<path
   d="m 429.104,659.419 h 6.01 v 10.491 h 11.062 v -10.491 h 6.01 v 27.332 h -6.01 v -11.79 h -11.062 v 11.79 h -6.01 v -27.332 z"
   id="path35"
   inkscape:connector-curvature="0"
   style="fill:#434345" />
	</g>
	<g
   id="g37">
		<path
   d="m 455.817,659.419 h 20.442 v 5.054 h -14.433 v 5.856 h 13.245 V 675 h -13.245 v 6.699 h 14.738 v 5.052 h -20.748 v -27.332 z"
   id="path39"
   inkscape:connector-curvature="0"
   style="fill:#434345" />
	</g>
	<g
   id="g41">
		<path
   d="m 479.856,659.419 h 6.011 v 22.28 h 13.322 v 5.052 h -19.333 v -27.332 z"
   id="path43"
   inkscape:connector-curvature="0"
   style="fill:#434345" />
	</g>
	<g
   id="g45">
		<path
   d="m 502.436,658.456 h 0.121 l 14.568,14.528 14.628,-14.461 h 0.121 v 28.228 h -5.629 v -14.334 h -0.074 l -9.046,8.278 -8.985,-8.328 h -0.077 v 14.384 h -5.627 v -28.295 z"
   id="path47"
   inkscape:connector-curvature="0"
   style="fill:#434345" />
	</g>
	<g
   id="g49">
		<path
   d="m 480,633.063 c -15.713,0 -30.957,-3.078 -45.309,-9.149 -13.862,-5.862 -26.31,-14.255 -36.999,-24.943 -10.689,-10.688 -19.082,-23.138 -24.944,-36.998 -6.071,-14.354 -9.149,-29.597 -9.149,-45.311 0,-15.712 3.078,-30.955 9.149,-45.309 5.862,-13.86 14.255,-26.31 24.944,-36.998 10.688,-10.688 23.137,-19.081 36.999,-24.943 14.353,-6.072 29.596,-9.149 45.309,-9.149 15.712,0 30.956,3.077 45.309,9.149 13.861,5.862 26.311,14.255 36.999,24.943 10.688,10.688 19.081,23.138 24.943,36.998 6.07,14.354 9.149,29.597 9.149,45.309 0,15.714 -3.079,30.957 -9.149,45.311 -5.862,13.86 -14.255,26.31 -24.943,36.998 -10.688,10.688 -23.138,19.081 -36.999,24.943 -14.353,6.071 -29.597,9.149 -45.309,9.149 z m 0,-225.858 c -14.778,0 -29.112,2.894 -42.605,8.601 -13.033,5.513 -24.74,13.405 -34.793,23.459 -10.054,10.054 -17.947,21.76 -23.459,34.793 -5.707,13.493 -8.601,27.827 -8.601,42.604 0,14.779 2.894,29.113 8.601,42.606 5.513,13.033 13.406,24.739 23.459,34.793 10.053,10.054 21.76,17.946 34.793,23.459 13.493,5.707 27.827,8.601 42.605,8.601 14.778,0 29.112,-2.894 42.604,-8.601 13.035,-5.513 24.74,-13.405 34.795,-23.459 10.053,-10.054 17.946,-21.76 23.459,-34.793 5.707,-13.493 8.601,-27.827 8.601,-42.606 0,-14.777 -2.894,-29.111 -8.601,-42.604 -5.513,-13.033 -13.406,-24.739 -23.459,-34.793 -10.055,-10.054 -21.76,-17.946 -34.795,-23.459 -13.492,-5.707 -27.826,-8.601 -42.604,-8.601 z"
   id="path51"
   inkscape:connector-curvature="0"
   style="fill:#f0493e" />
	</g>
</g>
</svg>