<?xml version="1.0" encoding="UTF-8" standalone="no"?>
<!-- Generator: Adobe Illustrator 16.1.0, SVG Export Plug-In . SVG Version: 6.00 Build 0)  -->

<svg
   xmlns:dc="http://purl.org/dc/elements/1.1/"
   xmlns:cc="http://creativecommons.org/ns#"
   xmlns:rdf="http://www.w3.org/1999/02/22-rdf-syntax-ns#"
   xmlns:svg="http://www.w3.org/2000/svg"
   xmlns="http://www.w3.org/2000/svg"
   xmlns:sodipodi="http://sodipodi.sourceforge.net/DTD/sodipodi-0.dtd"
   xmlns:inkscape="http://www.inkscape.org/namespaces/inkscape"
   version="1.1"
   id="Layer_1"
   x="0px"
   y="0px"
   width="493.90701"
   height="199.528"
   viewBox="0 0 493.90701 199.528"
   enable-background="new 0 0 960 800"
   xml:space="preserve"
   inkscape:version="0.48.3.1 r9886"
   sodipodi:docname="helm.svg"><metadata
   id="metadata57"><rdf:RDF><cc:Work
       rdf:about=""><dc:format>image/svg+xml</dc:format><dc:type
         rdf:resource="http://purl.org/dc/dcmitype/StillImage" /><dc:title></dc:title></cc:Work></rdf:RDF></metadata><defs
   id="defs55" /><sodipodi:namedview
   pagecolor="#ffffff"
   bordercolor="#666666"
   borderopacity="1"
   objecttolerance="10"
   gridtolerance="10"
   guidetolerance="10"
   inkscape:pageopacity="0"
   inkscape:pageshadow="2"
   inkscape:window-width="1920"
   inkscape:window-height="1034"
   id="namedview53"
   showgrid="false"
   fit-margin-top="0"
   fit-margin-left="0"
   fit-margin-right="0"
   fit-margin-bottom="0"
   inkscape:zoom="0.78"
   inkscape:cx="247"
   inkscape:cy="-77.369"
   inkscape:window-x="0"
   inkscape:window-y="24"
   inkscape:window-maximized="1"
   inkscape:current-layer="Layer_1" />
<g
   id="g3"
   transform="translate(-233,-123.103)">
	<g
   id="g5">
		<path
   d="m 406,123.103 v 28.504 L 377.239,180.308 348.479,152 H 319.6 L 290.799,180.308 262,151.607 v -28.504 l -29,28.504 v 28.504 l 29,28.504 v 28.504 28.504 28.504 l 29,28.504 V 294.127 266 h 29 v 28 h 29 v -28 h 28 v 28.127 28.504 l 29,-28.504 V 265.623 237.12 208.616 l 29,-28.504 v -28.504 l -29,-28.505 z m -36,99.39 -14.512,14.252 -14.381,-14.252 -7.191,-7.126 -7.158,7.254 L 312.474,237 h -14.253 l 14.253,-14.38 14.452,-14.316 -6.926,-7.19 v -14.252 l 6.926,7.126 7.026,7.126 7.076,7.126 14.486,14.252 L 370,208.241 v 14.252 z"
   id="path7"
   inkscape:connector-curvature="0"
   style="fill:#f0493e" />
	</g>
	<g
   id="g9">
		<g
   id="g11">
			<path
   d="m 461.508,208.509 h 15.521 v 27.09 h 28.569 v -27.09 h 15.521 v 70.585 h -15.521 v -30.449 h -28.569 v 30.449 h -15.521 v -70.585 z"
   id="path13"
   inkscape:connector-curvature="0"
   style="fill:#434345" />
		</g>
		<g
   id="g15">
			<path
   d="m 530.494,208.509 h 52.791 v 13.05 h -37.271 v 15.124 h 34.205 v 12.061 h -34.205 v 17.302 h 38.061 v 13.049 h -53.581 v -70.586 z"
   id="path17"
   inkscape:connector-curvature="0"
   style="fill:#434345" />
		</g>
		<g
   id="g19">
			<path
   d="m 592.575,208.509 h 15.522 v 57.537 H 642.5 v 13.049 h -49.925 v -70.586 z"
   id="path21"
   inkscape:connector-curvature="0"
   style="fill:#434345" />
		</g>
		<g
   id="g23">
			<path
   d="m 650.884,206.023 h 0.313 l 37.619,37.514 37.779,-37.341 h 0.312 v 72.898 h -14.534 v -37.018 h -0.197 l -23.36,21.376 -23.201,-21.509 h -0.199 v 37.15 h -14.532 v -73.07 z"
   id="path25"
   inkscape:connector-curvature="0"
   style="fill:#434345" />
		</g>
	</g>
</g>

</svg>